<svg width="625" height="648" viewBox="0 0 625 648" fill="none" xmlns="http://www.w3.org/2000/svg">
<path d="M618.066 344.73C618.066 509.189 480.967 642.746 311.553 642.746C142.138 642.746 5.04 509.189 5.04 344.73C5.04 180.271 142.138 46.7148 311.553 46.7148C480.967 46.7148 618.066 180.271 618.066 344.73Z" fill="white" stroke="black" stroke-width="10.08"/>
<path d="M619.778 303.055C619.778 323.706 617.616 338.734 613.751 349.391C609.927 359.932 604.544 365.942 598.089 369.154C591.493 372.436 583.018 373.18 572.338 371.621C561.671 370.064 549.315 366.288 535.32 361.095C523.611 356.75 510.967 351.495 497.392 345.854C494.759 344.759 492.09 343.65 489.386 342.531C472.797 335.66 454.98 328.423 436.204 321.836C398.665 308.667 357.079 298.015 313.265 298.015C269.451 298.015 227.866 308.667 190.327 321.836C171.551 328.423 153.734 335.66 137.145 342.531C134.441 343.65 131.772 344.759 129.139 345.854C115.564 351.495 102.92 356.75 91.2109 361.095C77.2161 366.288 64.8602 370.064 54.193 371.621C43.5124 373.18 35.0378 372.436 28.4414 369.154C21.9872 365.942 16.6038 359.932 12.7802 349.391C8.91462 338.734 6.75262 323.706 6.75262 303.055C6.75262 138.597 143.851 5.04 313.265 5.04C482.68 5.04 619.778 138.597 619.778 303.055Z" fill="#FFCB05" stroke="black" stroke-width="10.08"/>
</svg>
