<svg width="175" height="175" viewBox="0 0 175 175" fill="none" xmlns="http://www.w3.org/2000/svg">
<g opacity="0.3">
<path d="M172.5 88.4531C172.5 134.85 134.546 172.5 87.6804 172.5C40.8149 172.5 2.86084 134.85 2.86084 88.4531C2.86084 42.0562 40.8149 4.40625 87.6804 4.40625C134.546 4.40625 172.5 42.0562 172.5 88.4531Z" fill="white" stroke="black" stroke-width="5"/>
<path d="M172.139 86.5468C172.139 92.39 171.537 96.548 170.51 99.4318C169.502 102.262 168.144 103.723 166.647 104.482C165.083 105.275 162.97 105.507 160.094 105.079C157.223 104.652 153.848 103.608 149.948 102.133C146.688 100.9 143.168 99.4096 139.363 97.7984C138.624 97.4854 137.874 97.1678 137.113 96.8467C132.46 94.8832 127.443 92.8064 122.15 90.9144C111.57 87.1326 99.779 84.0468 87.3196 84.0468C74.8602 84.0468 63.0692 87.1326 52.4894 90.9144C47.1964 92.8064 42.179 94.8832 37.5263 96.8467C36.7653 97.1678 36.0152 97.4855 35.2759 97.7986C31.471 99.4097 27.9508 100.9 24.6911 102.133C20.7907 103.608 17.4158 104.652 14.545 105.079C11.669 105.507 9.55622 105.275 7.99264 104.482C6.49484 103.723 5.13677 102.262 4.12924 99.4318C3.10263 96.548 2.5 92.39 2.5 86.5468C2.5 40.15 40.454 2.5 87.3196 2.5C134.185 2.5 172.139 40.15 172.139 86.5468Z" fill="#FFCB05" stroke="black" stroke-width="5"/>
<path d="M98.5308 86.9283C98.5308 94.227 93.2678 99.6788 87.3195 99.6788C81.3712 99.6788 76.1082 94.227 76.1082 86.9283C76.1082 79.6295 81.3712 74.1777 87.3195 74.1777C93.2678 74.1777 98.5308 79.6295 98.5308 86.9283Z" fill="white" stroke="black" stroke-width="5"/>
</g>
</svg>
